<mxfile host="app.diagrams.net" modified="2024-05-20T07:37:58.293Z" agent="Mozilla/5.0 (Macintosh; Intel Mac OS X 10_15_7) AppleWebKit/537.36 (KHTML, like Gecko) Chrome/123.0.0.0 Safari/537.36" etag="dTNH0tBY9mOd0OSCaw_Z" version="24.2.3" type="github">
  <diagram id="07fea595-8f29-1299-0266-81d95cde20df" name="Page-1">
    <mxGraphModel dx="1309" dy="867" grid="1" gridSize="20" guides="1" tooltips="1" connect="1" arrows="1" fold="1" page="1" pageScale="1" pageWidth="4681" pageHeight="3300" background="none" math="0" shadow="0">
      <root>
        <mxCell id="0" />
        <mxCell id="1" parent="0" />
        <mxCell id="723" value="" style="whiteSpace=wrap;fillColor=#12AAB5;gradientColor=none;gradientDirection=east;strokeColor=none;html=1;fontColor=#23445d;" parent="1" vertex="1">
          <mxGeometry x="3170" y="1464.5000000000002" width="120" height="130" as="geometry" />
        </mxCell>
        <mxCell id="724" value="" style="whiteSpace=wrap;fillColor=#12AAB5;gradientColor=none;gradientDirection=east;strokeColor=none;html=1;fontColor=#23445d;" parent="1" vertex="1">
          <mxGeometry x="3350" y="1544.5" width="120" height="50.00000000000023" as="geometry" />
        </mxCell>
        <mxCell id="727" value="" style="edgeStyle=none;html=1;fontColor=#000000;strokeWidth=3;strokeColor=#000000;" parent="1" edge="1">
          <mxGeometry width="100" height="100" relative="1" as="geometry">
            <mxPoint x="2367.5" y="1569" as="sourcePoint" />
            <mxPoint x="2367.5" y="1089" as="targetPoint" />
          </mxGeometry>
        </mxCell>
        <mxCell id="728" value="" style="whiteSpace=wrap;fillColor=#F08705;gradientColor=none;gradientDirection=east;strokeColor=none;html=1;fontColor=#23445d;" parent="1" vertex="1">
          <mxGeometry x="3170" y="1334.5000000000002" width="120" height="130" as="geometry" />
        </mxCell>
        <mxCell id="729" value="" style="whiteSpace=wrap;fillColor=#E85642;gradientColor=none;gradientDirection=east;strokeColor=none;html=1;fontColor=#23445d;" parent="1" vertex="1">
          <mxGeometry x="2427.5" y="1464.5" width="120" height="102.25" as="geometry" />
        </mxCell>
        <mxCell id="730" value="" style="whiteSpace=wrap;fillColor=#F08705;gradientColor=none;gradientDirection=east;strokeColor=none;html=1;fontColor=#23445d;" parent="1" vertex="1">
          <mxGeometry x="3350" y="1384.4999999999998" width="120" height="159.99999999999983" as="geometry" />
        </mxCell>
        <mxCell id="731" value="" style="whiteSpace=wrap;fillColor=#E85642;gradientColor=none;gradientDirection=east;strokeColor=none;html=1;fontColor=#23445d;" parent="1" vertex="1">
          <mxGeometry x="2627.5" y="1224.5" width="120" height="342.25" as="geometry" />
        </mxCell>
        <mxCell id="734" value="" style="edgeStyle=none;html=1;fontColor=#000000;strokeWidth=3;strokeColor=#000000;" parent="1" edge="1">
          <mxGeometry width="100" height="100" relative="1" as="geometry">
            <mxPoint x="2367.5" y="1567.46" as="sourcePoint" />
            <mxPoint x="2830" y="1567.5" as="targetPoint" />
          </mxGeometry>
        </mxCell>
        <mxCell id="735" value="Type" style="text;spacingTop=-5;html=1;fontSize=18;fontStyle=0;points=[];strokeColor=none;" parent="1" vertex="1">
          <mxGeometry x="2840" y="1557" width="80" height="20" as="geometry" />
        </mxCell>
        <mxCell id="736" value="Direct storage" style="text;spacingTop=-5;align=center;verticalAlign=middle;fontStyle=0;html=1;fontSize=18;points=[];strokeColor=none;" parent="1" vertex="1">
          <mxGeometry x="2427.5" y="1571" width="120" height="30" as="geometry" />
        </mxCell>
        <mxCell id="737" value="Storage without&lt;div&gt;redundancy&lt;/div&gt;" style="text;spacingTop=-5;align=center;verticalAlign=middle;fontStyle=0;html=1;fontSize=18;points=[];strokeColor=none;" parent="1" vertex="1">
          <mxGeometry x="2627.5" y="1584.5" width="120" height="30" as="geometry" />
        </mxCell>
        <mxCell id="739" value="" style="whiteSpace=wrap;fillColor=#12AAB5;gradientColor=none;gradientDirection=east;strokeColor=none;html=1;fontColor=#23445d;" parent="1" vertex="1">
          <mxGeometry x="3240" y="1139.5" width="35.000000000000114" height="30.000000000000227" as="geometry" />
        </mxCell>
        <mxCell id="740" value="" style="whiteSpace=wrap;fillColor=#F08705;gradientColor=none;gradientDirection=east;strokeColor=none;html=1;fontColor=#23445d;" parent="1" vertex="1">
          <mxGeometry x="1879.9999999999995" y="1082.38" width="35.000000000000114" height="30.000000000000227" as="geometry" />
        </mxCell>
        <mxCell id="741" value="" style="whiteSpace=wrap;fillColor=#E85642;gradientColor=none;gradientDirection=east;strokeColor=none;html=1;fontColor=#23445d;" parent="1" vertex="1">
          <mxGeometry x="2730" y="1079" width="35.000000000000114" height="30.000000000000114" as="geometry" />
        </mxCell>
        <mxCell id="742" value="google_vit-base-patch16-224&#xa;" style="text;spacingTop=-5;points=[];fontSize=15;whiteSpace=wrap;" parent="1" vertex="1">
          <mxGeometry x="2780" y="1074" width="107" height="65.5" as="geometry" />
        </mxCell>
        <mxCell id="743" value="Type 2" style="text;spacingTop=-5;html=1;points=[];fontSize=15;" parent="1" vertex="1">
          <mxGeometry x="1920" y="1087.38" width="80" height="20" as="geometry" />
        </mxCell>
        <mxCell id="744" value="Type 3" style="text;spacingTop=-5;html=1;points=[];fontSize=15;" parent="1" vertex="1">
          <mxGeometry x="3280" y="1144.5" width="80" height="20" as="geometry" />
        </mxCell>
        <mxCell id="745" value="Time/s" style="text;spacingTop=-5;html=1;fontSize=18;fontStyle=0;points=[]" parent="1" vertex="1">
          <mxGeometry x="2327.5" y="1060" width="80" height="20" as="geometry" />
        </mxCell>
        <mxCell id="746" value="0" style="text;spacingTop=-5;align=center;verticalAlign=middle;fontStyle=0;html=1;fontSize=18;points=[]" parent="1" vertex="1">
          <mxGeometry x="2405.5" y="1546.5000000000002" width="30" height="129.99999999999977" as="geometry" />
        </mxCell>
        <mxCell id="747" value="0.53" style="text;spacingTop=-5;align=center;verticalAlign=middle;fontStyle=0;html=1;fontSize=18;points=[]" parent="1" vertex="1">
          <mxGeometry x="2327.5" y="1404.5" width="30" height="129.99999999999977" as="geometry" />
        </mxCell>
        <mxCell id="748" value="2.24" style="text;spacingTop=-5;align=center;verticalAlign=middle;fontStyle=0;html=1;fontSize=18;points=[]" parent="1" vertex="1">
          <mxGeometry x="2320" y="1169" width="30" height="129.99999999999977" as="geometry" />
        </mxCell>
        <mxCell id="VlcfnBgL3RGFJG4SDU6c-755" value="" style="edgeStyle=none;html=1;fontColor=#000000;strokeWidth=3;strokeColor=#000000;" edge="1" parent="1">
          <mxGeometry width="100" height="100" relative="1" as="geometry">
            <mxPoint x="1347.5" y="1596.38" as="sourcePoint" />
            <mxPoint x="1347.5" y="1116.38" as="targetPoint" />
          </mxGeometry>
        </mxCell>
        <mxCell id="VlcfnBgL3RGFJG4SDU6c-758" value="" style="edgeStyle=none;html=1;fontColor=#000000;strokeWidth=3;strokeColor=#000000;" edge="1" parent="1">
          <mxGeometry width="100" height="100" relative="1" as="geometry">
            <mxPoint x="1347.5" y="1594.8400000000001" as="sourcePoint" />
            <mxPoint x="1810" y="1594.88" as="targetPoint" />
          </mxGeometry>
        </mxCell>
        <mxCell id="VlcfnBgL3RGFJG4SDU6c-759" value="Type" style="text;spacingTop=-5;html=1;fontSize=18;fontStyle=0;points=[];strokeColor=none;" vertex="1" parent="1">
          <mxGeometry x="1820" y="1584.38" width="80" height="20" as="geometry" />
        </mxCell>
        <mxCell id="VlcfnBgL3RGFJG4SDU6c-760" value="Direct storage" style="text;spacingTop=-5;align=center;verticalAlign=middle;fontStyle=0;html=1;fontSize=18;points=[];strokeColor=none;" vertex="1" parent="1">
          <mxGeometry x="1407.5" y="1598.38" width="120" height="30" as="geometry" />
        </mxCell>
        <mxCell id="VlcfnBgL3RGFJG4SDU6c-761" value="Storage without&lt;div&gt;redundancy&lt;/div&gt;" style="text;spacingTop=-5;align=center;verticalAlign=middle;fontStyle=0;html=1;fontSize=18;points=[];strokeColor=none;" vertex="1" parent="1">
          <mxGeometry x="1607.5" y="1611.88" width="120" height="30" as="geometry" />
        </mxCell>
        <mxCell id="VlcfnBgL3RGFJG4SDU6c-764" value="Time/s" style="text;spacingTop=-5;html=1;fontSize=18;fontStyle=0;points=[]" vertex="1" parent="1">
          <mxGeometry x="1307.5" y="1087.38" width="80" height="20" as="geometry" />
        </mxCell>
        <mxCell id="VlcfnBgL3RGFJG4SDU6c-765" value="0" style="text;spacingTop=-5;align=center;verticalAlign=middle;fontStyle=0;html=1;fontSize=18;points=[]" vertex="1" parent="1">
          <mxGeometry x="1385.5" y="1573.88" width="30" height="129.99999999999977" as="geometry" />
        </mxCell>
        <mxCell id="VlcfnBgL3RGFJG4SDU6c-766" value="0.53" style="text;spacingTop=-5;align=center;verticalAlign=middle;fontStyle=0;html=1;fontSize=18;points=[]" vertex="1" parent="1">
          <mxGeometry x="1307.5" y="1431.88" width="30" height="129.99999999999977" as="geometry" />
        </mxCell>
        <mxCell id="VlcfnBgL3RGFJG4SDU6c-767" value="2.24" style="text;spacingTop=-5;align=center;verticalAlign=middle;fontStyle=0;html=1;fontSize=18;points=[]" vertex="1" parent="1">
          <mxGeometry x="1300" y="1196.38" width="30" height="129.99999999999977" as="geometry" />
        </mxCell>
        <mxCell id="VlcfnBgL3RGFJG4SDU6c-768" value="" style="whiteSpace=wrap;fillColor=#F08705;gradientColor=none;gradientDirection=east;strokeColor=none;html=1;fontColor=#23445d;" vertex="1" parent="1">
          <mxGeometry x="1607.5" y="1464.5000000000002" width="120" height="130" as="geometry" />
        </mxCell>
        <mxCell id="VlcfnBgL3RGFJG4SDU6c-769" value="" style="whiteSpace=wrap;fillColor=#F08705;gradientColor=none;gradientDirection=east;strokeColor=none;html=1;fontColor=#23445d;" vertex="1" parent="1">
          <mxGeometry x="1407.5" y="1464.5000000000002" width="120" height="130" as="geometry" />
        </mxCell>
      </root>
    </mxGraphModel>
  </diagram>
</mxfile>
